<svg id="_02d45862-41ba-4c70-8782-54d8e5b108cc" data-name="02d45862-41ba-4c70-8782-54d8e5b108cc" xmlns="http://www.w3.org/2000/svg" xmlns:xlink="http://www.w3.org/1999/xlink" viewBox="0 0 900.05 696.69"><defs><style>.cls-1,.cls-5{opacity:0.8;}.cls-2{fill:url(#Degradado_sin_nombre);}.cls-3{fill:#fff;}.cls-4{fill:#f5f5f5;}.cls-10,.cls-5{fill:#e0e0e0;}.cls-13,.cls-15,.cls-5{isolation:isolate;}.cls-6{fill:#ff5252;}.cls-7{fill:#ff0;}.cls-8{fill:#69f0ae;}.cls-9{fill:url(#Degradado_sin_nombre_2);}.cls-11{fill:#2b6cb0;}.cls-12{fill:#333;}.cls-13{opacity:0.1;}.cls-14{fill:#fdb797;}.cls-15{fill:none;stroke:#000;stroke-miterlimit:10;stroke-width:4px;opacity:0.05;}.cls-16{fill:url(#Degradado_sin_nombre_3);}.cls-17{fill:#63b3ed;}</style><linearGradient id="Degradado_sin_nombre" x1="583.82" y1="-65.13" x2="583.82" y2="451.67" gradientTransform="matrix(1, 0, 0, -1, -149.95, 596.34)" gradientUnits="userSpaceOnUse"><stop offset="0" stop-color="gray" stop-opacity="0.25"/><stop offset="0.54" stop-color="gray" stop-opacity="0.12"/><stop offset="1" stop-color="gray" stop-opacity="0.1"/></linearGradient><linearGradient id="Degradado_sin_nombre_2" x1="584.41" y1="-100.35" x2="584.41" y2="-16.29" xlink:href="#Degradado_sin_nombre"/><linearGradient id="Degradado_sin_nombre_3" x1="760.68" y1="449.31" x2="760.68" y2="698" gradientTransform="matrix(1, 0, 0, -1, -0.05, 698)" xlink:href="#Degradado_sin_nombre"/></defs><g class="cls-1"><path class="cls-2" d="M821.17,661.47H46.57v-501a15.8,15.8,0,0,1,15.8-15.8h743a15.8,15.8,0,0,1,15.8,15.8Z" transform="translate(-0.05)"/></g><path class="cls-3" d="M73,153.77H794.69a15.8,15.8,0,0,1,15.8,15.8v491.9H57.24V169.58A15.8,15.8,0,0,1,73,153.77Z" transform="translate(-0.05)"/><rect class="cls-4" x="81.44" y="183.31" width="704.75" height="462.25"/><rect class="cls-5" x="84.14" y="205.75" width="701.76" height="415.88"/><rect class="cls-4" x="84.14" y="183.65" width="701.76" height="22.1"/><circle class="cls-6" cx="99.19" cy="194.37" r="5.36"/><circle class="cls-7" cx="113.92" cy="194.37" r="5.36"/><circle class="cls-8" cx="128.66" cy="194.37" r="5.36"/><g class="cls-1"><path class="cls-9" d="M842.84,694.69c-43.12,3.27-783.62,2-809.49,0C-.57,678.34.05,614.9.05,614.9l339.6-2.27,1.14,19.31H486.11l5.68-17H868.13S875.61,673.1,842.84,694.69Z" transform="translate(-0.05)"/></g><path class="cls-4" d="M862.62,620h-369a11.33,11.33,0,0,1-8.6,18.74H344.14a11.33,11.33,0,0,1-8.6-18.74H5.11s-.57,55.09,32.94,69.33c25.55,1.7,757,2.84,799.59,0C870.05,670.55,862.62,620,862.62,620Z" transform="translate(-0.05)"/><circle class="cls-10" cx="81.73" cy="631.94" r="4.54"/><circle class="cls-10" cx="95.36" cy="631.94" r="4.54"/><circle class="cls-10" cx="108.98" cy="631.94" r="4.54"/><path class="cls-11" d="M419.88,375.85h32.19a139.5,139.5,0,0,1,139.5,139.5V616.76H280.38V515.35A139.5,139.5,0,0,1,419.88,375.85Z" transform="translate(-0.05)"/><circle class="cls-12" cx="436.23" cy="179.39" r="142.22"/><path class="cls-13" d="M415.34,334.43h41.13a29,29,0,0,1,29,29v28.26A44.34,44.34,0,0,1,441.13,436H430.64a44.34,44.34,0,0,1-44.34-44.34V363.47a29,29,0,0,1,29-29h0Z" transform="translate(-0.05)"/><path class="cls-14" d="M386.3,331.53h99.22v57.3a44.34,44.34,0,0,1-44.34,44.34H430.64a44.34,44.34,0,0,1-44.34-44.34v-57.3Z" transform="translate(-0.05)"/><path class="cls-13" d="M386.48,345.84a142.79,142.79,0,0,0,99.22.27V333.93H386.48Z" transform="translate(-0.05)"/><circle class="cls-14" cx="436.23" cy="210.26" r="142.22"/><path class="cls-13" d="M300.31,159.92h271.2S548.36,50.41,445.83,57.34,300.31,159.92,300.31,159.92Z" transform="translate(-0.05)"/><path class="cls-12" d="M300.31,156.24h271.2S548.36,46.73,445.83,53.71,300.31,156.24,300.31,156.24Z" transform="translate(-0.05)"/><ellipse class="cls-14" cx="296.95" cy="204.2" rx="13.23" ry="24.81"/><ellipse class="cls-14" cx="574.77" cy="204.2" rx="13.23" ry="24.81"/><path class="cls-12" d="M321.36,83.68c3.25-10.62,9.16-20.77,18.28-27.1,6.93-4.81,15.22-7.12,23.17-9.94a177.45,177.45,0,0,0,33.68-16.11c12.06-7.43,23.39-16.38,36.67-21.29,22.85-8.45,48.3-3.88,71.89,2.18,5.81,1.49,11.69,3.11,16.81,6.25,5.93,3.63,10.48,9.09,14.92,14.44l37.44,45.16c3.43,4.13,6.88,8.31,9.3,13.11a45,45,0,0,1,4.26,14.79c1,8.28.22,17.06-4,24.27-6.33,10.81-19.38,16.24-31.89,16.74s-24.79-3.13-36.81-6.65c-38.76-11.35-78-21.93-118.2-26.64a334,334,0,0,0-60.15-2c-6.3.41-14.62,3.3-18.45-3.12C315,102.25,319.65,89.26,321.36,83.68Z" transform="translate(-0.05)"/><line class="cls-15" x1="341.25" y1="506.34" x2="341.25" y2="616.76"/><line class="cls-15" x1="533.09" y1="506.34" x2="533.09" y2="616.76"/><g class="cls-1"><polygon class="cls-16" points="900.05 198.47 721.59 198.47 661.36 248.69 661.36 198.47 621.21 198.47 621.21 0 900.05 0 900.05 198.47"/></g><rect class="cls-3" x="624.99" y="2.36" width="271.28" height="189.79"/><rect class="cls-10" x="655.54" y="30.26" width="214.95" height="5.64"/><rect class="cls-10" x="655.54" y="55.66" width="147.78" height="5.64"/><rect class="cls-10" x="655.54" y="81.05" width="177.34" height="5.64"/><rect class="cls-17" x="655.54" y="106.45" width="142.41" height="5.64"/><rect class="cls-17" x="655.54" y="131.84" width="214.95" height="5.64"/><rect class="cls-17" x="655.54" y="157.24" width="214.95" height="5.64"/><polygon class="cls-3" points="671.4 188.46 671.4 238.66 726.61 183.44 671.4 188.46"/></svg>