<svg id="Capa_1" data-name="Capa 1" xmlns="http://www.w3.org/2000/svg" viewBox="0 0 18.07 18.07"><defs><style>.cls-1{fill:none;}.cls-2{fill:#212121;}</style></defs><path class="cls-1" d="M0,0" transform="translate(-2.97 -2.97)"/><path class="cls-2" d="M16.85,8.21a.93.93,0,0,1-.29-.05l-.14-.07a.52.52,0,0,1-.11-.1.75.75,0,0,1-.23-.55.77.77,0,0,1,0-.15,1,1,0,0,1,0-.14A.83.83,0,0,1,16.21,7l.1-.12.11-.09.14-.07.14,0a.77.77,0,0,1,.69.21l.1.12a.83.83,0,0,1,.07.13,1,1,0,0,1,0,.14.77.77,0,0,1,0,.15.75.75,0,0,1-.23.55.52.52,0,0,1-.11.1l-.14.07L17,8.2ZM12,16.2A4.2,4.2,0,1,1,16.2,12h0A4.2,4.2,0,0,1,12,16.2ZM12,9A3.05,3.05,0,1,0,15.05,12h0A3.06,3.06,0,0,0,12,9Z" transform="translate(-2.97 -2.97)"/><path class="cls-2" d="M10.29,12.58A.58.58,0,0,1,9.72,12a2.28,2.28,0,0,1,1.52-2.15.58.58,0,0,1,.75.34.57.57,0,0,1-.34.74h0A1.11,1.11,0,0,0,10.87,12,.58.58,0,0,1,10.29,12.58Z" transform="translate(-2.97 -2.97)"/><path class="cls-2" d="M14.69,21H9.31A6.34,6.34,0,0,1,3,14.69V9.31A6.34,6.34,0,0,1,9.31,3h5.38A6.34,6.34,0,0,1,21,9.31v5.38A6.34,6.34,0,0,1,14.69,21ZM9.31,4.12A5.19,5.19,0,0,0,4.12,9.31v5.38a5.19,5.19,0,0,0,5.19,5.19h5.38a5.19,5.19,0,0,0,5.19-5.19V9.31a5.19,5.19,0,0,0-5.19-5.19Z" transform="translate(-2.97 -2.97)"/></svg>