<svg id="Capa_1" data-name="Capa 1" xmlns="http://www.w3.org/2000/svg" viewBox="0 0 18.86 14.98"><defs><style>.cls-1{fill:none;}</style></defs><path class="cls-1" d="M0,0" transform="translate(-2.57 -4.51)"/><path d="M4.81,7.57A.77.77,0,0,0,4.57,7L2.81,4.83V4.51H8.27l4.23,9.27,3.72-9.27h5.21v.32l-1.5,1.44a.44.44,0,0,0-.17.43V17.3a.44.44,0,0,0,.17.43l1.47,1.44v.32H14v-.32l1.52-1.48c.15-.15.15-.19.15-.42V8.69L11.44,19.45h-.58L5.93,8.69V15.9a1,1,0,0,0,.28.83l2,2.41v.31H2.57v-.31l2-2.41a1,1,0,0,0,.26-.83Z" transform="translate(-2.57 -4.51)"/></svg>