<svg id="Capa_1" data-name="Capa 1" xmlns="http://www.w3.org/2000/svg" viewBox="0 0 829.12 587.66"><defs><style>.cls-1{fill:#ffb6b6;}.cls-2{fill:#2f2e41;}.cls-3{fill:#2b6cb0;}.cls-4{fill:#f0f0f0;}.cls-5{fill:#cacaca;}.cls-6{fill:#3f3d56;}.cls-7{fill:#fff;}.cls-8{opacity:0.35;}</style></defs><polygon class="cls-1" points="743.37 519.76 723.06 519.76 729.61 572.85 743.37 572.85 743.37 519.76"/><path class="cls-2" d="M743.86,570.21h-3.69l-14.43-5.87L718,570.21h0a16.47,16.47,0,0,0-16.47,16.47v.53h42.32Z" transform="translate(-0.01 -0.01)"/><polygon class="cls-1" points="688.41 466.83 672.42 479.36 710.31 517.11 721.14 508.62 688.41 466.83"/><path class="cls-2" d="M719.9,506.25,717,508.53l-15,4.27-2.47,9.39h0a16.47,16.47,0,0,0-2.81,23.12l.33.42,33.32-26.09Z" transform="translate(-0.01 -0.01)"/><path class="cls-2" d="M770,266.77,778.8,285,761.89,442l-16,111.62H720l2.7-100.12L709.13,337.13l-19.62,63.59L681.05,419l31.12,71L692.89,510.3l-50.4-75.76-1.35-8.79-1.45-4.5h0a11.05,11.05,0,0,1-2.05-12.79L639.4,405l6.81-75.28c-8.11-44,10.15-62.92,10.15-62.92Z" transform="translate(-0.01 -0.01)"/><path class="cls-3" d="M774.27,299.27c-.61-.09-61.13-9.22-76.36-3.14-14.29,5.72-37.58-22.34-43.43-26.3-.74-.5-1.09-1-1.09-1.42,0-3.13,8.58-14.56,9.88-16.28l1.51-7.08c1-4.74,5.27-38.7,9.73-40.61h0l-.57-2.84a15,15,0,0,1,3.55-12.93l4.32-4.81V173.42l-1.7-7.7-6.82-56c15-18,18-17,35.46-20.06l9.36-8.94H745.4l16.92,16.3,13.92,2.21a52.85,52.85,0,0,1,15,51.22l-6,24.07-4.15,36.24,0,.18-7.19,7.2,1,8,1,8.2a12.08,12.08,0,0,1-8.26,12.89h0c2.23,4.8,17.06,38,7.2,51.76l-.19.26Z" transform="translate(-0.01 -0.01)"/><path class="cls-1" d="M759.49,294.5A11.15,11.15,0,1,0,777.56,301L802,238.25l4.26-56.49-28-2c-7.06,14.89,0,54.49,0,54.49Z" transform="translate(-0.01 -0.01)"/><path class="cls-3" d="M811.3,209.76,776,213.85l-12.4-40.49,1.37-6.52c-12.62-2.19-10.28-20.14-16.76-37.11a23.65,23.65,0,0,1,12.21-29.87h0a23.7,23.7,0,0,1,24.79,3.28h0a54.11,54.11,0,0,1,19.4,36.75l1.73,18.87Z" transform="translate(-0.01 -0.01)"/><path class="cls-1" d="M566.4,248.92a11.16,11.16,0,1,0,9.5,16.69L635.35,234,675.42,194,655.5,174.21c-15.07,6.68-35.58,41.27-35.58,41.27Z" transform="translate(-0.01 -0.01)"/><path class="cls-3" d="M661,218.47l-29.46-19.94,8-22.79,5.29-4.05c-8.14-9.89,14.34-38,20.5-55.06A23.64,23.64,0,0,1,694,102h0a23.7,23.7,0,0,1,16.66,18.64h0a54.1,54.1,0,0,1-9.26,40.52l-11,15.44Z" transform="translate(-0.01 -0.01)"/><circle class="cls-1" cx="733.59" cy="42.58" r="30.3"/><path class="cls-2" d="M756.38,63.3s0,0,0-.08c-.26.24-.51.49-.77.72Z" transform="translate(-0.01 -0.01)"/><path class="cls-2" d="M705.16,31.22c2.27-1.45,4.79-3,7.46-2.64,2.41.3,4.41,2,6.74,2.71,5,1.46,10-2.08,15.16-2.44h.11a12.54,12.54,0,0,1,13.3,11.74c.1,1.66-.13,3.35.09,5a5.08,5.08,0,0,0,2.54,4.08c2.27,1,5.35-.51,7.27,1.09,1.72,1.44,1.09,4.22.06,6.22s-2.31,4.19-1.53,6.25a45.56,45.56,0,0,0,14.52-34,18.13,18.13,0,0,0-1.7-8.14,8.47,8.47,0,0,0-6.47-4.77c-2.37-.21-4.83.86-7.09.1-2.79-.94-4-4.14-5.4-6.71A19.41,19.41,0,0,0,732.48,0a37.19,37.19,0,0,0-7.54,1.51l-4.8,1.31a25.52,25.52,0,0,0-5.3,1.88,17.27,17.27,0,0,0-6.07,5.85A26.61,26.61,0,0,0,705.16,31.22Z" transform="translate(-0.01 -0.01)"/><path class="cls-4" d="M599,583.76a.76.76,0,0,0,0,.15,10.61,10.61,0,0,0,.54,2.24h32.54c.43-.78.83-1.58,1.2-2.39,3.34-7.15,4.75-15.13,6.1-23l2.19-12.7-21,15.26c-2.28,1.66-4.61,3.39-6.8,5.26-.25-1.25-.52-2.51-.79-3.75l-1.54-7.08-7.71,12.39C601.15,574.34,598.47,578.91,599,583.76Z" transform="translate(-0.01 -0.01)"/><path class="cls-4" d="M31,581.42a2.46,2.46,0,0,0,0,.28,19.55,19.55,0,0,0,1,4.06h59c.78-1.41,1.51-2.87,2.18-4.34,6.06-13,8.62-27.44,11.07-41.62l4-23q-19,13.86-38.08,27.68c-4.13,3-8.36,6.15-12.33,9.54-.45-2.27-.94-4.55-1.43-6.8l-2.8-12.84-14,22.47C35,564.34,30.11,572.63,31,581.42Z" transform="translate(-0.01 -0.01)"/><path class="cls-5" d="M0,586.18A1.18,1.18,0,0,1,1.19,585l826.75.3a1.2,1.2,0,0,1,0,2.39L1.19,587.37A1.18,1.18,0,0,1,0,586.18Z" transform="translate(-0.01 -0.01)"/><path class="cls-6" d="M555.94,224.52H130.6a13.82,13.82,0,0,0-13.8,13.78v287a13.81,13.81,0,0,0,13.8,13.8H555.94a13.81,13.81,0,0,0,13.79-13.8v-287A13.8,13.8,0,0,0,555.94,224.52Z" transform="translate(-0.01 -0.01)"/><path class="cls-7" d="M552.38,234.48H134.14a7.39,7.39,0,0,0-7.37,7.39V521.78a7.37,7.37,0,0,0,7.37,7.37H552.38a7.39,7.39,0,0,0,7.38-7.37V241.87A7.4,7.4,0,0,0,552.38,234.48Z" transform="translate(-0.01 -0.01)"/><path class="cls-2" d="M580.34,574.31l-7.07-33.58a8.4,8.4,0,0,0-5.22-6.09,8.16,8.16,0,0,0-3-.56H123.75a8.12,8.12,0,0,0-3,.56,8.4,8.4,0,0,0-5.22,6.09l-7.07,33.58a8.21,8.21,0,0,0-.18,1.71,8.38,8.38,0,0,0,8.37,8.39H572.12a8.25,8.25,0,0,0,6.51-3.11A8.38,8.38,0,0,0,580.34,574.31Z" transform="translate(-0.01 -0.01)"/><rect class="cls-6" x="126.98" y="540.12" width="14.03" height="8.42" rx="0.49"/><rect class="cls-6" x="155.03" y="540.12" width="14.03" height="8.42" rx="0.49"/><rect class="cls-6" x="183.09" y="540.12" width="14.03" height="8.42" rx="0.49"/><rect class="cls-6" x="211.14" y="540.12" width="14.03" height="8.42" rx="0.49"/><rect class="cls-6" x="239.2" y="540.12" width="14.03" height="8.42" rx="0.49"/><rect class="cls-6" x="267.25" y="540.12" width="14.03" height="8.42" rx="0.49"/><rect class="cls-6" x="295.31" y="540.12" width="14.03" height="8.42" rx="0.49"/><rect class="cls-6" x="323.36" y="540.12" width="14.03" height="8.42" rx="0.49"/><rect class="cls-6" x="351.42" y="540.12" width="14.03" height="8.42" rx="0.49"/><rect class="cls-6" x="379.47" y="540.12" width="14.03" height="8.42" rx="0.49"/><rect class="cls-6" x="407.53" y="540.12" width="14.03" height="8.42" rx="0.49"/><rect class="cls-6" x="435.58" y="540.12" width="14.03" height="8.42" rx="0.49"/><rect class="cls-6" x="463.64" y="540.12" width="14.03" height="8.42" rx="0.49"/><rect class="cls-6" x="491.69" y="540.12" width="14.03" height="8.42" rx="0.49"/><rect class="cls-6" x="519.74" y="540.12" width="14.03" height="8.42" rx="0.49"/><rect class="cls-6" x="547.8" y="540.12" width="14.03" height="8.42" rx="0.49"/><rect class="cls-6" x="126.65" y="554.15" width="14.03" height="8.42" rx="0.49"/><rect class="cls-6" x="154.7" y="554.15" width="14.03" height="8.42" rx="0.49"/><rect class="cls-6" x="182.76" y="554.15" width="14.03" height="8.42" rx="0.49"/><rect class="cls-6" x="210.81" y="554.15" width="14.03" height="8.42" rx="0.49"/><rect class="cls-6" x="238.87" y="554.15" width="14.03" height="8.42" rx="0.49"/><rect class="cls-6" x="266.92" y="554.15" width="14.03" height="8.42" rx="0.49"/><rect class="cls-6" x="294.98" y="554.15" width="14.03" height="8.42" rx="0.49"/><rect class="cls-6" x="323.03" y="554.15" width="14.03" height="8.42" rx="0.49"/><rect class="cls-6" x="351.09" y="554.15" width="14.03" height="8.42" rx="0.49"/><rect class="cls-6" x="379.14" y="554.15" width="14.03" height="8.42" rx="0.49"/><rect class="cls-6" x="407.19" y="554.15" width="14.03" height="8.42" rx="0.49"/><rect class="cls-6" x="435.25" y="554.15" width="14.03" height="8.42" rx="0.49"/><rect class="cls-6" x="463.3" y="554.15" width="14.03" height="8.42" rx="0.49"/><rect class="cls-6" x="491.36" y="554.15" width="14.03" height="8.42" rx="0.49"/><rect class="cls-6" x="519.41" y="554.15" width="14.03" height="8.42" rx="0.49"/><rect class="cls-6" x="547.47" y="554.15" width="14.03" height="8.42" rx="0.49"/><rect class="cls-6" x="292.31" y="570.98" width="112.22" height="8.42" rx="0.49"/><path class="cls-6" d="M251.06,379.93q1-3.84,2.31-7.54h0l.6-1.68a95.28,95.28,0,1,1-2.91,9.22Z" transform="translate(-0.01 -0.01)"/><path class="cls-3" d="M358.94,349.36c.82,4.08,1.35,8.55,3.41,11.61,1.75,2.59,4.28,3.68,6.56,5.18a10.45,10.45,0,0,1,5,7.44c3.11-3.4,4.71-9.37,4-14.86l-.31-.09c1.36-7.92,8.21-12.85,13.51-9.73-1.31-5.53-5.45-8.59-9.37-10.3a31.92,31.92,0,0,0-28.06,1.15C356.56,340.89,358.12,345.28,358.94,349.36Z" transform="translate(-0.01 -0.01)"/><path class="cls-3" d="M381.16,377.57c.31-3.2,1.92-6.17,4.11-7.06,2.39-1,4.89.52,7.15,2l1.88,1.21c1.49,1,3.18,1.94,4.72,1.15s2.52-3.53,2.64-6c.2-4.22-1.18-8.23-2.53-12-.36-1-.73-2-1.09-3.05q-3.56-9.94-7.1-19.88l-2-.2c7.13-.45,14.07,2.86,20.82,6.14,3,1.47,6.2,3.06,8.56,6.13.16.21.31.42.46.64,2.3,3.37,3.56,8.24,6.4,10.65a6.74,6.74,0,0,0,1.71,1.07,94.15,94.15,0,0,1,6.82,15.61c-.55-.07-1.12-.13-1.67-.17-3.05-.2-6.44.53-8.41,3.83-2.47,4.14-1.72,10.28-2.23,15.66a33.71,33.71,0,0,1-7.68,18.16c-3.88,4.68-8.49,7.92-13.05,11.11l-.57-3.8c-1.81-.62-2.65-4.28-1.45-6.3,1.33,1.52,3.64.49,4.13-1.83s-1-5-2.73-4.78c-2.14.27-3.73,4.14-5.81,3.39-1.32-.49-2-2.67-2-4.6s.29-3.89.07-5.81a11.91,11.91,0,0,0-3.77-7c-1.75-1.72-3.71-3.1-5.18-5.31A14.12,14.12,0,0,1,381.16,377.57Z" transform="translate(-0.01 -0.01)"/><path class="cls-3" d="M367.75,433.57a7.34,7.34,0,0,0-.48,5.21,16.64,16.64,0,0,0,2.07,4.59A195,195,0,0,0,392.27,475a45.35,45.35,0,0,1-1.71-23.83C391.72,445.32,394,440,394.7,434s-1-13.26-5.13-14.82l.11.29-19.8,12.19A5.7,5.7,0,0,0,367.75,433.57Z" transform="translate(-0.01 -0.01)"/><path class="cls-3" d="M393.12,353.87l-1.06-1.3-5.66,5.68a9.08,9.08,0,0,0-3.09,5.25c-.26,2.17.77,4.51,2.26,5.11,1.24.49,2.55-.11,3.76-.71l3.65-1.81a5.93,5.93,0,0,0,3.29-3,7.28,7.28,0,0,0-.34-5.31A14.22,14.22,0,0,0,393.12,353.87Z" transform="translate(-0.01 -0.01)"/><path class="cls-3" d="M254,370.71a94.18,94.18,0,0,1,5.27-11.63l9.07-1.77c4.06-.79,8.41-1.79,11.32-5.88,2-2.82,3.16-6.91,5.61-8.9a4.17,4.17,0,0,1,5.7.11,12.19,12.19,0,0,1,1.29,1.58l7.25,9.9c2.32,3.16,5.31,6.57,8.37,5.21,1.82-.81,3.18-3.53,2.95-6.23s-2.18-4.92-4.06-4.43c2.52-3,7.05-.88,7.83,3.66.43,2.57-.12,5.62,1.05,7.67l.06.09a3.3,3.3,0,0,0,4.55,1.06c1.58-.78,2.93-2.26,4.47-3.15,2.92-1.68,6.29-1.11,9.21.58s5.46,4.42,8,7.12a13.62,13.62,0,0,1,3.09,4.38c.71,1.82.79,4.31-.21,5.84a1.9,1.9,0,0,1-1.46.95,1.93,1.93,0,0,1-2.12-1.72c.19,2.88-3,4.15-4.47,2.21s-1.57-5.28-1.22-8.12c-2.78,3-2.13,10.31,1.09,12.24,1.82,1.09,3.92.57,5.85,1.2,4.72,1.54,7,9,8.5,15.56-2.46-4.07-6.84-5.5-10.3-3.35a7.32,7.32,0,0,1-2.74,1.45h-.16a2.07,2.07,0,0,1-1.94-2.19c-1.51,1.49-3.6.4-5.1-1.11s-2.94-3.47-4.77-3.73-3.85,2.63-2.83,4.8c1.56-.39,3.14,1.2,3.79,3.26a14.47,14.47,0,0,1,.17,6.64,22,22,0,0,1-6,12.16,6.74,6.74,0,0,1-4.86,2.22,4.84,4.84,0,0,1-4.05-3.9c-.37-1.49-.28-3.29-1-4.47-1.13-1.77-3.31-.69-4.35,1.2s-1.47,4.33-2.53,6.19c-1.47,2.59-4.15,3.64-6.36,2.48s-3.74-4.43-3.68-7.77c-1,3.06-2.07,6.2-3.8,8.54s-4.29,3.72-6.54,2.58c-2.61-1.32-3.9-5.4-4.91-9.07q-1.41-5.12-2.81-10.23c-.53-1.95-1.12-4-2.27-5.31s-3-1.73-4.51-2.5c-3.69-1.86-6.43-7-6.72-12.53l4.92-1.16A31.81,31.81,0,0,0,254,370.71Z" transform="translate(-0.01 -0.01)"/><path class="cls-3" d="M253.37,372.39c1.7,4.11,1.29,10-1.3,13.21a19.21,19.21,0,0,0-1-5.67Q252.07,376.09,253.37,372.39Z" transform="translate(-0.01 -0.01)"/><path class="cls-3" d="M258.83,443.87c.81-1.65,2-3.52,3.35-3,1.18.44,1.64,2.94.76,4.15l1.57.05c.64-3.15,3.48-4.45,5.7-3.53s3.9,3.39,5.49,5.76a21.38,21.38,0,0,1,3.67,7.53c.61,3,0,6.69-2,8s-4.15-.09-6-1.52-3.83-2.82-5.74-2a95,95,0,0,1-7.89-13.19C258.11,445.37,258.47,444.61,258.83,443.87Z" transform="translate(-0.01 -0.01)"/><path class="cls-3" d="M320,436.49c2,3.62,4.53,6.89,5.47,11.3.53,2.5.51,5.22,1.22,7.63,1.45,4.92,6.19,7.16,9.42,4.46,2.58-2.16,3.83-6.54,4.28-10.75s.3-8.54.93-12.7,2.3-8.38,5.12-9.83c2.25-1.17,4.84-.37,7.07-1.64,2.81-1.6,4.32-6.37,3.91-10.65a18.1,18.1,0,0,0-4.83-10.56A32.26,32.26,0,0,0,344.5,398l-2.14.87a6.9,6.9,0,0,1-4.75,4.18c-1.89.58-3.87.74-5.6,1.93-3,2.07-4.66,6.74-6.43,10.82s-4.44,8.22-7.81,8C316.44,428,318,432.88,320,436.49Z" transform="translate(-0.01 -0.01)"/><path class="cls-3" d="M351.56,379.14c-.06-1-1-1.42-1.09-2.39,0-.67.38-1.22.48-1.88a1.61,1.61,0,0,0-.75-1.71l.17,0a3.86,3.86,0,0,0-2.8,2.95,6.54,6.54,0,0,1-.74,2.15c-.26.34-.64.53-.8,1a2.47,2.47,0,0,0,.48,2,13.92,13.92,0,0,0,1.61,2.27,2.91,2.91,0,0,0,2.11,1.07,3,3,0,0,1-.06-3.16,9.67,9.67,0,0,1,.88-.93A1.86,1.86,0,0,0,351.56,379.14Z" transform="translate(-0.01 -0.01)"/><path class="cls-3" d="M356.52,363.68a2.81,2.81,0,0,0,.29.31h0Z" transform="translate(-0.01 -0.01)"/><path class="cls-3" d="M357.9,368.55l2.85-.84a.47.47,0,0,0,.36-.29.88.88,0,0,0-.06-.55l-.47-1.46a2.25,2.25,0,0,0-.5-1c-.43-.37-1-.05-1.47.08a1.94,1.94,0,0,1-1.8-.53c-.8-.21-1.67.53-1.91,1.64a2.93,2.93,0,0,0,.91,2.91A2.46,2.46,0,0,0,357.9,368.55Z" transform="translate(-0.01 -0.01)"/><path class="cls-3" d="M283.36,432.83a3.65,3.65,0,0,0,.56,2.3c.5.83,1.31,1.52,2,1.05a2.61,2.61,0,0,0,.82-1.82c.08-.74.05-1.5.15-2.24a9.34,9.34,0,0,1,2.32-4.52l.05-.41,0,0a1.54,1.54,0,0,0-2.17-.2,7.12,7.12,0,0,0-1.74,2.19L284,431.32A3.92,3.92,0,0,0,283.36,432.83Z" transform="translate(-0.01 -0.01)"/><path class="cls-3" d="M278.58,432.75a3.12,3.12,0,0,0,1.76-1.39,2.79,2.79,0,0,0,0-2.66c-.31-.46-.81-.64-1.07-1.17A9.26,9.26,0,0,1,279,426a2.2,2.2,0,0,0-1.33-1.5,3.84,3.84,0,0,0-1.75-.08l.43-.28c-.2-.26-.56-.11-.7.22a1.86,1.86,0,0,0-.05,1.12,8,8,0,0,0,1,2.29,4.34,4.34,0,0,1,.67,2.5,5.06,5.06,0,0,0-.16,2C277.36,433,278.05,432.94,278.58,432.75Z" transform="translate(-0.01 -0.01)"/><path class="cls-3" d="M269.08,431.78l-.31-.08a14.86,14.86,0,0,0-5.2.82,8.77,8.77,0,0,0-5.05,6.3,3.62,3.62,0,0,1,3.45-1.38c.71.14,1.51.51,2.1-.09a5.69,5.69,0,0,0,.76-1.39C265.89,434,268.31,434,269.08,431.78Z" transform="translate(-0.01 -0.01)"/><path class="cls-3" d="M316.76,440.38l.09.17h0Z" transform="translate(-0.01 -0.01)"/><path class="cls-3" d="M316.85,440.55a8.88,8.88,0,0,0-.36,5.73,21.74,21.74,0,0,0,2.16,5.12,3.38,3.38,0,0,0,.64,1,.69.69,0,0,0,.88.12c.47-.37.44-1.34.35-2.1a20.22,20.22,0,0,0-.76-3.93,15.8,15.8,0,0,0-1.05-2.29Z" transform="translate(-0.01 -0.01)"/><path class="cls-3" d="M337.58,343.83a7,7,0,0,0-.65-2c-.49-1-1.36-1.76-2.15-1.33l.77.68-3.17.94a2.26,2.26,0,0,0-1.7,1.35,2.87,2.87,0,0,0,.27,2.2,5.18,5.18,0,0,0,1.3,1.42,7.73,7.73,0,0,0,2.15,1.42,2.12,2.12,0,0,0,2.29-.45A5.15,5.15,0,0,0,337.58,343.83Z" transform="translate(-0.01 -0.01)"/><path class="cls-3" d="M318.53,338.63c-.6-1.37-2-1.33-3.12-1.12l.13.77c-.58.07-1,1-.92,1.83a2.67,2.67,0,0,0,1.05,1.89,1.75,1.75,0,0,0,2.38-.19A3.21,3.21,0,0,0,318.53,338.63Z" transform="translate(-0.01 -0.01)"/><path class="cls-5" d="M148.61,284.16a1,1,0,0,1,1-1H536.92a1,1,0,0,1,1,1,1,1,0,0,1-1,1H149.6A1,1,0,0,1,148.61,284.16Z" transform="translate(-0.01 -0.01)"/><ellipse class="cls-6" cx="235.63" cy="258.66" rx="10.93" ry="11.17"/><ellipse class="cls-6" cx="197.89" cy="258.66" rx="10.93" ry="11.17"/><ellipse class="cls-6" cx="160.14" cy="258.66" rx="10.93" ry="11.17"/><path class="cls-6" d="M502.23,252.59a2,2,0,0,0,2,2.07H531a2,2,0,0,0,0-4.06H504.22A2,2,0,0,0,502.23,252.59Z" transform="translate(-0.01 -0.01)"/><path class="cls-6" d="M502.23,260.21a2,2,0,0,0,2,2.07H531a2,2,0,0,0,0-4.06H504.22A2,2,0,0,0,502.23,260.21Z" transform="translate(-0.01 -0.01)"/><path class="cls-6" d="M502.23,267.82a2,2,0,0,0,2,2.07H531a2,2,0,0,0,0-4.06H504.22A2,2,0,0,0,502.23,267.82Z" transform="translate(-0.01 -0.01)"/><g class="cls-8"><path class="cls-7" d="M138.07,408.61c3.76,2.61,22,5.39,39.82,6.83s35.43,1.83,52.2,2.13c40.16.73,79.55,1.12,118,1.18,18.44,0,37.21,0,50-1.32,11.93-1.19,18-3.37,31.57-4.26,24.41-1.58,66.47,1.41,90.09-.32,12.63-.93,17.84-3.09,19.88-5.4,3.18-3.62-.6-7.89-14.28-12.22s-37.93-8.71-66.22-11.38-60-3.37-76.2-1.29c-6.17.79-10,1.93-15.48,2.83a125.25,125.25,0,0,1-23.86,1.24c-11.25-.34-24.27-1.76-34.39-1.67-17.7.17-10.48,4.49-22.63,5.86-13,1.48-41.44-1-58.67-.34-13.84.51-17.25,2.88-18,5.18s-.09,4.85-9,6.28c-9.17,1.48-26.52,1.45-40.86,2s-27,2.11-20.75,4.82" transform="translate(-0.01 -0.01)"/></g></svg>