<svg id="ea98fdbc-a252-4665-af64-abf278d5674c" xmlns="http://www.w3.org/2000/svg" xmlns:xlink="http://www.w3.org/1999/xlink" viewBox="0 0 891 711.05"><defs><style>.cls-1{fill:#f2f2f2;}.cls-2{fill:#f5f5f5;}.cls-3{fill:url(#Degradado_sin_nombre);}.cls-23,.cls-38,.cls-4{fill:#fff;}.cls-5{fill:#90cdf4;}.cls-6{fill:#ff0;}.cls-7{fill:#69f0ae;}.cls-38,.cls-56,.cls-8{opacity:0.2;}.cls-25,.cls-9{fill:#2b6cb0;}.cls-10{fill:#575a89;}.cls-10,.cls-15,.cls-22,.cls-23,.cls-25,.cls-38,.cls-56{isolation:isolate;}.cls-10,.cls-15,.cls-22,.cls-23,.cls-25{opacity:0.5;}.cls-11{fill:url(#Degradado_sin_nombre_2);}.cls-12{fill:url(#Degradado_sin_nombre_3);}.cls-13{fill:url(#Degradado_sin_nombre_4);}.cls-14,.cls-22{fill:#4299e1;}.cls-15,.cls-49{fill:#2c5282;}.cls-16{fill:url(#Degradado_sin_nombre_5);}.cls-17{fill:url(#Degradado_sin_nombre_6);}.cls-18{fill:url(#Degradado_sin_nombre_7);}.cls-19{fill:#63b3ed;}.cls-20{fill:url(#Degradado_sin_nombre_8);}.cls-21{fill:url(#Degradado_sin_nombre_9);}.cls-24{fill:url(#Degradado_sin_nombre_10);}.cls-26,.cls-27,.cls-28,.cls-29,.cls-30,.cls-31,.cls-53{fill:none;stroke:#4299e1;stroke-miterlimit:10;}.cls-27{stroke-dasharray:11.51 11.51;}.cls-28{stroke-dasharray:13.06 13.06;}.cls-29{stroke-dasharray:9.79 9.79;}.cls-30{stroke-dasharray:11.28 11.28;}.cls-31{stroke-dasharray:11.93 11.93;}.cls-32{fill:url(#Degradado_sin_nombre_11);}.cls-33{fill:url(#Degradado_sin_nombre_12);}.cls-34{fill:url(#Degradado_sin_nombre_13);}.cls-35{fill:url(#Degradado_sin_nombre_14);}.cls-36{fill:#ca7070;}.cls-37{fill:#00695c;}.cls-39{fill:#263238;}.cls-40{fill:url(#Degradado_sin_nombre_15);}.cls-41{fill:url(#Degradado_sin_nombre_16);}.cls-42{fill:#f6b9ad;}.cls-43{fill:#fccc63;}.cls-44{fill:url(#Degradado_sin_nombre_17);}.cls-45{fill:url(#Degradado_sin_nombre_18);}.cls-46{fill:url(#Degradado_sin_nombre_19);}.cls-47{fill:url(#Degradado_sin_nombre_20);}.cls-48{fill:url(#Degradado_sin_nombre_21);}.cls-50{fill:url(#Degradado_sin_nombre_22);}.cls-51{fill:url(#Degradado_sin_nombre_23);}.cls-52{fill:url(#Degradado_sin_nombre_24);}.cls-53{stroke-width:3px;}.cls-54{fill:url(#Degradado_sin_nombre_25);}.cls-55{fill:url(#Degradado_sin_nombre_26);}.cls-57{fill:url(#Degradado_sin_nombre_27);}.cls-58{fill:#985454;}</style><linearGradient id="Degradado_sin_nombre" x1="213.62" y1="228" x2="213.62" y2="714" gradientTransform="matrix(1, 0, 0, -1, 0, 714)" gradientUnits="userSpaceOnUse"><stop offset="0" stop-color="gray" stop-opacity="0.25"/><stop offset="0.54" stop-color="gray" stop-opacity="0.12"/><stop offset="1" stop-color="gray" stop-opacity="0.1"/></linearGradient><linearGradient id="Degradado_sin_nombre_2" x1="227.62" y1="341" x2="227.62" y2="352" xlink:href="#Degradado_sin_nombre"/><linearGradient id="Degradado_sin_nombre_3" x1="227.62" y1="285" x2="227.62" y2="296" xlink:href="#Degradado_sin_nombre"/><linearGradient id="Degradado_sin_nombre_4" x1="329.62" y1="285" x2="329.62" y2="296" xlink:href="#Degradado_sin_nombre"/><linearGradient id="Degradado_sin_nombre_5" x1="336.62" y1="631" x2="336.62" y2="642" xlink:href="#Degradado_sin_nombre"/><linearGradient id="Degradado_sin_nombre_6" x1="336.62" y1="616" x2="336.62" y2="627" xlink:href="#Degradado_sin_nombre"/><linearGradient id="Degradado_sin_nombre_7" x1="336.62" y1="601" x2="336.62" y2="612" xlink:href="#Degradado_sin_nombre"/><linearGradient id="Degradado_sin_nombre_8" x1="336.62" y1="586" x2="336.62" y2="597" xlink:href="#Degradado_sin_nombre"/><linearGradient id="Degradado_sin_nombre_9" x1="214.12" y1="382" x2="214.12" y2="532" xlink:href="#Degradado_sin_nombre"/><linearGradient id="Degradado_sin_nombre_10" x1="365.2" y1="232.87" x2="365.2" y2="384.87" gradientTransform="matrix(1, 0, 0, -1, -141.59, 573.9)" xlink:href="#Degradado_sin_nombre"/><linearGradient id="Degradado_sin_nombre_11" x1="424.21" y1="346.88" x2="424.21" y2="360.88" gradientTransform="matrix(1, -0.09, -0.09, -1, -112.11, 605.73)" xlink:href="#Degradado_sin_nombre"/><linearGradient id="Degradado_sin_nombre_12" x1="466.2" y1="350.87" x2="466.2" y2="364.87" gradientTransform="matrix(1, -0.09, -0.09, -1, -112.1, 605.72)" xlink:href="#Degradado_sin_nombre"/><linearGradient id="Degradado_sin_nombre_13" x1="547.96" y1="300.58" x2="547.96" y2="300.84" gradientTransform="matrix(1, 0, 0, -1, -154.5, 619.52)" xlink:href="#Degradado_sin_nombre"/><linearGradient id="Degradado_sin_nombre_14" x1="517.6" y1="132.74" x2="517.6" y2="305.52" gradientTransform="matrix(1, 0, 0, -1, -154.5, 619.52)" xlink:href="#Degradado_sin_nombre"/><linearGradient id="Degradado_sin_nombre_15" x1="191.31" y1="290.67" x2="191.31" y2="290.98" gradientTransform="matrix(1, 0, 0, -1, -154.5, 619.52)" xlink:href="#Degradado_sin_nombre"/><linearGradient id="Degradado_sin_nombre_16" x1="228.21" y1="94.17" x2="228.21" y2="296.63" gradientTransform="matrix(1, 0, 0, -1, -154.5, 619.52)" xlink:href="#Degradado_sin_nombre"/><linearGradient id="Degradado_sin_nombre_17" x1="692" y1="54.95" x2="692" y2="550.95" xlink:href="#Degradado_sin_nombre"/><linearGradient id="Degradado_sin_nombre_18" x1="595.12" y1="318.32" x2="595.12" y2="472.32" xlink:href="#Degradado_sin_nombre"/><linearGradient id="Degradado_sin_nombre_19" x1="788.12" y1="241.32" x2="788.12" y2="395.32" xlink:href="#Degradado_sin_nombre"/><linearGradient id="Degradado_sin_nombre_20" x1="696.12" y1="99.32" x2="696.12" y2="205.32" xlink:href="#Degradado_sin_nombre"/><linearGradient id="Degradado_sin_nombre_21" x1="749.09" y1="238.85" x2="749.09" y2="362.86" gradientTransform="matrix(1, 0, 0, -1, -154.5, 619.52)" xlink:href="#Degradado_sin_nombre"/><linearGradient id="Degradado_sin_nombre_22" x1="790.62" y1="351.32" x2="790.62" y2="369.32" xlink:href="#Degradado_sin_nombre"/><linearGradient id="Degradado_sin_nombre_23" x1="760.62" y1="14.32" x2="760.62" y2="36.32" xlink:href="#Degradado_sin_nombre"/><linearGradient id="Degradado_sin_nombre_24" x1="607.62" y1="26.32" x2="607.62" y2="147.32" xlink:href="#Degradado_sin_nombre"/><linearGradient id="Degradado_sin_nombre_25" x1="482.12" y1="68.32" x2="482.12" y2="123.32" xlink:href="#Degradado_sin_nombre"/><linearGradient id="Degradado_sin_nombre_26" x1="459.62" y1="14.32" x2="459.62" y2="36.32" xlink:href="#Degradado_sin_nombre"/><linearGradient id="Degradado_sin_nombre_27" x1="486.33" y1="5.18" x2="600.65" y2="5.18" gradientTransform="matrix(1, 0, 0, -1, -154.5, 619.52)" xlink:href="#Degradado_sin_nombre"/></defs><ellipse class="cls-1" cx="370" cy="694.05" rx="67" ry="17"/><ellipse class="cls-1" cx="375" cy="506.05" rx="67" ry="17"/><ellipse class="cls-1" cx="67" cy="514.05" rx="67" ry="17"/><rect class="cls-2" x="22.62" y="4" width="383" height="14.5"/><rect class="cls-3" x="15.62" width="396" height="486"/><rect class="cls-4" x="22.62" y="18.5" width="383" height="459.5"/><circle class="cls-5" cx="30.5" cy="11.5" r="3.5"/><circle class="cls-6" cx="40.12" cy="11.5" r="3.5"/><circle class="cls-7" cx="49.75" cy="11.5" r="3.5"/><g class="cls-8"><rect class="cls-9" x="33.62" y="36" width="149" height="9"/></g><rect class="cls-2" x="139.62" y="73" width="149" height="9"/><rect class="cls-10" x="33.62" y="363" width="149" height="9"/><rect class="cls-11" x="202.62" y="362" width="50" height="11"/><rect class="cls-12" x="202.62" y="418" width="50" height="11"/><rect class="cls-13" x="304.62" y="418" width="50" height="11"/><rect class="cls-14" x="204.62" y="363" width="47" height="9"/><rect class="cls-14" x="204.62" y="419" width="47" height="9"/><rect class="cls-14" x="305.62" y="419" width="47" height="9"/><rect class="cls-2" x="33.62" y="391" width="149" height="9"/><rect class="cls-15" x="204.62" y="391" width="149" height="9"/><rect class="cls-2" x="204.62" y="447" width="149" height="9"/><rect class="cls-15" x="33.62" y="419" width="149" height="9"/><rect class="cls-2" x="33.62" y="447" width="149" height="9"/><rect class="cls-2" x="139.62" y="88" width="84" height="9"/><rect class="cls-2" x="238.62" y="88" width="29" height="9"/><rect class="cls-2" x="139.62" y="118" width="84" height="9"/><rect class="cls-2" x="238.62" y="118" width="29" height="9"/><rect class="cls-2" x="139.62" y="103" width="149" height="9"/><g class="cls-8"><rect class="cls-9" x="243.62" y="36" width="149" height="9"/></g><rect class="cls-16" x="327.62" y="72" width="18" height="11"/><rect class="cls-17" x="327.62" y="87" width="18" height="11"/><rect class="cls-18" x="327.62" y="102" width="18" height="11"/><rect class="cls-5" x="328.62" y="73" width="16" height="9"/><rect class="cls-19" x="328.62" y="88" width="16" height="9"/><rect class="cls-7" x="328.62" y="103" width="16" height="9"/><rect class="cls-20" x="327.62" y="117" width="18" height="11"/><rect class="cls-14" x="328.62" y="118" width="16" height="9"/><rect class="cls-21" x="30.62" y="182" width="367" height="150"/><rect class="cls-22" x="33.62" y="185" width="359" height="142"/><polygon class="cls-23" points="44.62 196 392.62 196 392.62 185 33.62 185 33.62 327 44.62 327 44.62 196"/><rect class="cls-24" x="38.6" y="189.03" width="370" height="152" transform="translate(-23.1 21.36) rotate(-5.2)"/><rect class="cls-4" x="44.51" y="192.98" width="359" height="142" transform="translate(-23 21.39) rotate(-5.2)"/><path class="cls-25" d="M65.5,325.59l-6.2-78.77s32-34,96.6-8.8,95.06,7.41,105.56-9.61,65-36,82.66-7.53S383,217.34,383,217.34L390.12,296Z"/><line class="cls-26" x1="98.03" y1="229.66" x2="98.57" y2="235.64"/><line class="cls-27" x1="99.62" y1="247.1" x2="105.36" y2="310.16"/><line class="cls-26" x1="105.88" y1="315.89" x2="106.43" y2="321.86"/><line class="cls-26" x1="159.52" y1="239.42" x2="160.07" y2="245.39"/><line class="cls-28" x1="161.25" y1="258.4" x2="165.4" y2="303.91"/><line class="cls-26" x1="165.99" y1="310.41" x2="166.53" y2="316.39"/><line class="cls-26" x1="222.26" y1="250.1" x2="222.86" y2="256.07"/><line class="cls-29" x1="223.83" y1="265.82" x2="227.21" y2="299.92"/><line class="cls-26" x1="227.7" y1="304.79" x2="228.29" y2="310.77"/><line class="cls-26" x1="278.65" y1="214.84" x2="279.19" y2="220.82"/><line class="cls-30" x1="280.21" y1="232.05" x2="285.84" y2="293.84"/><line class="cls-26" x1="286.35" y1="299.45" x2="286.9" y2="305.43"/><line class="cls-26" x1="319.35" y1="206.59" x2="319.89" y2="212.56"/><line class="cls-31" x1="320.97" y1="224.44" x2="326.92" y2="289.77"/><line class="cls-26" x1="327.46" y1="295.71" x2="328.01" y2="301.68"/><circle class="cls-19" cx="97.84" cy="229.28" r="5" transform="translate(-137.73 310.81) rotate(-85.98)"/><circle class="cls-5" cx="159.04" cy="239.78" r="5"/><circle class="cls-7" cx="222.25" cy="250.09" r="5"/><circle class="cls-32" cx="278.28" cy="214.86" r="7"/><circle class="cls-33" cx="319.75" cy="207.08" r="7"/><circle class="cls-14" cx="278.28" cy="214.86" r="5"/><circle class="cls-14" cx="319.75" cy="207.08" r="5"/><circle class="cls-7" cx="383.12" cy="219.38" r="5"/><g class="cls-8"><path class="cls-34" d="M393.26,318.72l.07.23C394.1,318.52,393.26,318.72,393.26,318.72Z"/></g><g class="cls-8"><path class="cls-35" d="M385,486.7l16.28-2.63-2.24-10h0v-.14H399l-11.54-53V382.28a14.48,14.48,0,0,0-.08-1.47c17.24-22.86,7-58.73,6-61.86-.18.09-.45.21-.83.36a20.78,20.78,0,0,0-.79-4.13s-5-3.18-7.73.91c-2.38,3.57-.61,5.75-.12,6.26l-.34.11a11.45,11.45,0,0,1,1.58,3.94,9.64,9.64,0,0,0-.54-1c-.63-.11-1-.21-1-.21l-.12-.11-.34.11c1.73,2.53,2.34,7,2.26,12.3a17.35,17.35,0,0,0-13.7-7.19h-.83a10.35,10.35,0,0,0-1.36.09h-.34l-.57.08-.65.12-.47.1-.81.22-.3.09c-.34.11-.67.22-1,.35a17.58,17.58,0,0,1-3.43,1.24,1.67,1.67,0,0,0-.49.05h0a5.77,5.77,0,0,1-3.75-1.07l-.36-.28a4.59,4.59,0,0,1-.39-.37,2.55,2.55,0,0,0-.17,1.09,3.39,3.39,0,0,0,1.17,2.27,3.75,3.75,0,0,0,.62.42,2.81,2.81,0,0,0,1.06.3h.29c-.23.11-.46.21-.7.3h-.05c-.26.09-.51.17-.78.24h0a8.72,8.72,0,0,1-4,.06h0l-.43-.1-.63-.19c.07.15.14.3.22.44l.08.13.18.28.11.14.2.25.12.13.25.25.1.09.37.31.13.09.27.19.18.11.24.14.2.1.25.11.21.09.28.1.35.1.26.07H359a4.86,4.86,0,0,0,1.5-.37l-.92.38h0l-.46.16-.47.17-.47.14-.48.14-.47.12-.5.12-.46.09-.53.09-.44.07-.57.07h-2.4a4.15,4.15,0,0,1,1.51.8,3.8,3.8,0,0,0,.93.5,3.63,3.63,0,0,0,.45.1h2.24a6.46,6.46,0,0,1,2.59.83,4.6,4.6,0,0,1,1.11,1c-.14.23-.28.45-.4.69s-.21.4-.31.61a11.73,11.73,0,0,0-.53,1.27,14.08,14.08,0,0,0-.86,4.85v1.16a3.53,3.53,0,0,0,.08.72v.19a8.85,8.85,0,0,0,.16.87v.17c.05.24.11.48.18.71l.06.21a13.72,13.72,0,0,0,.61,1.66l.07.16c.11.25.23.49.35.72v.07c.15.27.3.53.46.79v.06c.15.24.3.47.47.7l.06.08a14.34,14.34,0,0,0,1.17,1.41h0a14.13,14.13,0,0,0,3.77,2.83c-.05.21-.08.43-.11.65h0c0,.23,0,.45,0,.68v5.28c-.3.16-.59.33-.88.51-12.53-5.69-31.19-46-31.19-46h-.45c1.82-1.36,0-7.28,0-7.28a8.53,8.53,0,0,0-3.5-1.16H328.8l-.2.06h-.1l-.3.11h0l-.28.13-.1.05-.19.11-.13.61-.18.12-.11.09-.17.14-.11.1-.17.16-.1.11-.17.2-.08.1-.25.34c-2.73,4.09,0,6.37,0,6.37a39.67,39.67,0,0,0-.25,4.75c-.2,29.46,31.33,52.29,32.94,53.43-.71,1.84-6.57,18.14.07,38.49a.64.64,0,0,0,.08.14,59.1,59.1,0,0,0-17.72,55.88l.13.61h.29c0,.14-.07.27-.11.4a4.3,4.3,0,0,1-.29.7,5.47,5.47,0,0,1-.73,1.07h0c-.31.36-.67.72-1.05,1.09l-.4.38c-1.59,1.52-3.2,3-2,3.6h17.21v-7.51h.3s-.12-.23-.3-.68v-.08h-.06c-.9-2.32-3-9.5.36-20.56,4.09-13.65,20-20.47,20-20.47l.29,1h-.06l12.48,41a1.67,1.67,0,0,1,0,.49,7.27,7.27,0,0,1-.27,1.14,7.76,7.76,0,0,1-.34.84c-.77,1.59-2.1,3.46-2.68,4.86a5.89,5.89,0,0,0-.21.59,1.84,1.84,0,0,0-.07.7.79.79,0,0,0,.53.67h.23l.48-.08ZM380.16,370c-.31-.17-.65-.34-1-.49v-5a6.1,6.1,0,0,0-.11-1.13,13.71,13.71,0,0,0,3-1.93c-.6,3.06-1.27,6-1.88,8.51Z"/></g><path class="cls-36" d="M325.88,328.61s-3-2.52,0-7.06,8.57-1,8.57-1,2,6.55,0,8.06S325.88,328.61,325.88,328.61Z"/><path id="cbb1ca8a-3a06-4d8d-9881-c3637d2b9b50" class="cls-37" d="M357,497.27H343.15a4.56,4.56,0,0,1-1.31,3.57c-1.87,2.16-5.63,4.77-3.86,5.66H357Z"/><path class="cls-38" d="M342.85,500.84a4.56,4.56,0,0,0,1.31-3.57h-1a4.56,4.56,0,0,1-1.31,3.57c-1.87,2.16-5.63,4.77-3.86,5.66h1C337.22,505.61,341,503,342.85,500.84Z"/><path id="ec846da8-b8c9-4838-98ee-b96510078eab" class="cls-37" d="M406.5,494.41l-13,2.11a6.62,6.62,0,0,1-.59,4.58c-1.42,3-4.61,6.74-2.69,7.55l18.82-3Z"/><path class="cls-37" d="M400.16,322.46s14.87,46.91-10.07,72.88l-7.2-5.51s14.74-51.2,6.49-63.22C403.94,321.76,400.16,322.46,400.16,322.46Z"/><path class="cls-36" d="M389.88,326.6s-3-2.52,0-7.06,8.57-1,8.57-1,2,6.55,0,8.06S389.88,326.6,389.88,326.6Z"/><path class="cls-38" d="M393.91,501.11a6.65,6.65,0,0,0,.59-4.59l12-2v-.16l-13,2.16a6.62,6.62,0,0,1-.59,4.58c-1.42,3-4.61,6.74-2.69,7.55l.79-.13C389.58,507.52,392.55,503.93,393.91,501.11Z"/><path class="cls-36" d="M377.54,366.16h0a7.06,7.06,0,0,1,7,7.06V380a7.06,7.06,0,0,1-7,7.06h0a7.06,7.06,0,0,1-7.06-7.06v-6.79A7.06,7.06,0,0,1,377.54,366.16Z"/><path class="cls-38" d="M383.9,392.85s14.56-50.57,6.63-63l-1.15-.23-.13-.12-.37.12c8.25,12-6.49,63.22-6.49,63.22l7.2,5.51.63-.68Z"/><circle class="cls-36" cx="377.79" cy="357.85" r="15.62"/><path class="cls-38" d="M372.24,380v-6.8a6.71,6.71,0,0,1,.16-1.48,15.62,15.62,0,0,1,6.26-29.49h-.88a15.62,15.62,0,0,0-7.15,29.51,6.71,6.71,0,0,0-.16,1.48V380a7,7,0,0,0,6.94,7.06,5.6,5.6,0,0,0,1-.06A7.08,7.08,0,0,1,372.24,380Z"/><path class="cls-37" d="M393.66,435.7s-30.13,3.4-31.24,0c-7.81-23.94,0-42.83,0-42.83A15.62,15.62,0,0,1,378,377.25h0a15.62,15.62,0,0,1,15.62,15.62Z"/><path class="cls-39" d="M393.66,435.7l13.61,62.49H393.66l-14.11-46.36s-17.64,7.56-22.17,22.68,0,23.68,0,23.68H342.76l-.15-.68a65,65,0,0,1,19.8-61.81h0"/><path class="cls-38" d="M364.18,435.7c-7.81-23.94,0-42.83,0-42.83a15.62,15.62,0,0,1,14.61-15.59h-1a15.62,15.62,0,0,0-15.62,15.62s-7.81,18.9,0,42.83c.4,1.22,4.52,1.56,9.64,1.51C367.65,437.15,364.5,436.75,364.18,435.7Z"/><path class="cls-37" d="M362.17,392.61s-40.31-28.22-36.28-64H335S356.62,375.52,370.5,380,362.17,392.61,362.17,392.61Z"/><g class="cls-8"><path class="cls-4" d="M379.81,452.93l13.85,45.51h2l-14.11-46.36S380.9,452.36,379.81,452.93Z"/><path class="cls-4" d="M364.43,436h-2a65,65,0,0,0-19.8,61.81l.15.68h2l-.15-.68A65,65,0,0,1,364.43,436Z"/></g><path class="cls-38" d="M327.4,329.12h-1.51c-4,35.78,36.28,64,36.28,64l1-.38C358.5,389.29,323.63,362.52,327.4,329.12Z"/><path class="cls-39" d="M365.33,350.87a25.92,25.92,0,0,1,1.82,6.29c1,4.38,3.26,8.75,7.15,11a15.87,15.87,0,0,0,7,1.91c3.72.23,7.75-.49,10.38-3.13a12.81,12.81,0,0,0,3.17-6.39,21.62,21.62,0,0,0-5.69-19.88,19.19,19.19,0,0,0-20-4.19,18.89,18.89,0,0,1-3.79,1.38,6.3,6.3,0,0,1-5.53-1.84,3.48,3.48,0,0,0,2.3,4.36,3.56,3.56,0,0,0,1.07.16,9.75,9.75,0,0,1-7.46.4,6.34,6.34,0,0,0,8,3.19,21.28,21.28,0,0,1-9,1.84c.65,0,1.92,1.2,2.71,1.44a16.76,16.76,0,0,0,3,.21A5.82,5.82,0,0,1,365.33,350.87Z"/><g class="cls-8"><path class="cls-4" d="M363.25,340.52a9.74,9.74,0,0,1-3.7,1,9.72,9.72,0,0,0,4.71-1,3.53,3.53,0,0,1-3.55-3.51c0-.1,0-.2,0-.3a6.31,6.31,0,0,1-.84-.71,3.48,3.48,0,0,0,2.3,4.36A3.56,3.56,0,0,0,363.25,340.52Z"/><path class="cls-4" d="M366.41,337.87a18.89,18.89,0,0,0,3.79-1.38,17.35,17.35,0,0,1,6-1.21,17.47,17.47,0,0,0-7,1.21,18.89,18.89,0,0,1-3.79,1.38,1.66,1.66,0,0,0-.54.06A5.69,5.69,0,0,0,366.41,337.87Z"/><path class="cls-4" d="M358.42,347.42c-.79-.23-2.06-1.42-2.71-1.44a21.28,21.28,0,0,0,9-1.84,5.72,5.72,0,0,1-2,.42,21.44,21.44,0,0,1-8,1.42c.65,0,1.92,1.2,2.71,1.44a6.76,6.76,0,0,0,2.1.17A4.58,4.58,0,0,1,358.42,347.42Z"/><path class="cls-4" d="M382.33,370.08a15.87,15.87,0,0,1-7-1.91c-3.89-2.27-6.11-6.64-7.15-11a25.92,25.92,0,0,0-1.82-6.29,5.82,5.82,0,0,0-4.93-3.23,9.39,9.39,0,0,0-1.5,0h.49a5.82,5.82,0,0,1,4.93,3.23,25.92,25.92,0,0,1,1.82,6.29c1,4.38,3.26,8.75,7.15,11a15.87,15.87,0,0,0,7,1.91h1Z"/><path class="cls-4" d="M362.08,344.52a6.39,6.39,0,0,1-5.12-3.27,7.81,7.81,0,0,1-1.17-.33A6.39,6.39,0,0,0,362.08,344.52Z"/></g><path class="cls-38" d="M326.89,328.61s-3-2.52,0-7.06a4.83,4.83,0,0,1,3.74-2.29,4.9,4.9,0,0,0-4.74,2.29c-3,4.54,0,7.06,0,7.06a27,27,0,0,0,5.93.66A29.21,29.21,0,0,1,326.89,328.61Z"/><g class="cls-8"><path class="cls-40" d="M37,328.85l.08-.27S36,328.38,37,328.85Z"/></g><g class="cls-8"><path class="cls-41" d="M131.2,345.61a7.45,7.45,0,0,0-.36-.93c0-.1-.1-.18-.15-.27a5.39,5.39,0,0,0-.3-.52l-.2-.26a3.09,3.09,0,0,0-.33-.39l-.23-.23-.36-.3-.25-.18-.4-.24-.25-.13-.45-.19-.23-.09c-.21-.07-.43-.13-.65-.18h0a10.32,10.32,0,0,0-4.39.12s-4.19,6.18-2.58,8.4l-.53-.16S88.41,384.8,70.85,391.25c-.45-.31-.91-.59-1.39-.86v-6.5c0-.27,0-.55,0-.82h0a6.51,6.51,0,0,0-.13-.77l.13-.07.52-.29.75-.46.48-.31a11.53,11.53,0,0,0,1-.78l.39-.34q.36-.3.69-.63l.4-.39c.28-.29.55-.58.8-.88l.28-.34c.24-.3.47-.61.69-.92l.28-.42c.2-.31.39-.62.57-.94l.18-.31a13.68,13.68,0,0,0,.61-1.28l.16-.39c.14-.35.27-.71.39-1.07a1.86,1.86,0,0,1,.12-.38c.14-.47.27-.94.37-1.43a.59.59,0,0,1,0-.29c.08-.41.14-.82.19-1.24v-.42c0-.51.08-1,.08-1.55a17,17,0,0,0-3.78-10.69c1.33-2.08,2.2-3.31,2.2-3.31-.8-.55-1.59-1.05-2.37-1.54l-.76-.45c-.52-.31-1-.62-1.56-.9l-.87-.46c-.47-.25-.93-.49-1.39-.71L69,348.7l-1.33-.58-.87-.35-1.31-.48-.82-.28-1.34-.39-.73-.2c-.5-.12-1-.22-1.49-.32l-.53-.11c-.67-.12-1.33-.21-2-.27h0a23.74,23.74,0,0,0-12,1.84c.2-4.78,1-8.72,2.68-11.16l-.41-.14-.14.14s-.49.11-1.26.25a10.81,10.81,0,0,0-.65,1.21,13.89,13.89,0,0,1,1.91-4.76l-.41-.14c.59-.61,2.73-3.24-.14-7.55-3.3-4.94-9.34-1.1-9.34-1.1a25.79,25.79,0,0,0-.94,5c-.46-.19-.79-.33-1-.44a124.64,124.64,0,0,0-4.69,31.36C21.34,375.69,16.84,398.51,16,403.43h0l-.07.39h0l-.09.55,28.31.66v45.12L23.5,493.74s7.84.25,19.64,1.76l-3.26,23.31h0l-1.09,6.54H58.41c2.18-4.36-8.72-6.54-8.72-6.54h-.24l4.25-21.75c1.88.31,3.81.65,5.8,1a57,57,0,0,0,8.83,1h0a46.33,46.33,0,0,0,7.35-.32c1.44,11.79-.45,18.83-.81,20h-.11l-1.09,6.54H93.29c1.9-3.8-6.14-5.95-8.23-6.43l.09-.64a109.12,109.12,0,0,0,.77-22.2,27,27,0,0,0,7-4.17h0l.27-.24h0l.08-.08-14.61-41c2.73-11.6-6.77-23.78-1.7-29.87s2-13.86,1.4-15.19c13.72-6,41.45-21,49.23-47a48.75,48.75,0,0,0,1.39-5.57S132.9,351.3,131.2,345.61Z"/></g><path class="cls-5" d="M40.08,336.46s-14.87,46.91,10.07,72.88l7.2-5.51s-14.74-51.2-6.49-63.22C36.3,335.76,40.08,336.46,40.08,336.46Z"/><path class="cls-42" d="M50.36,340.6s3-2.52,0-7.06-8.57-1-8.57-1-2,6.55,0,8.06S50.36,340.6,50.36,340.6Z"/><rect class="cls-42" x="55.65" y="380.16" width="14.11" height="20.91" rx="7.05"/><path class="cls-38" d="M56.34,406.85s-14.56-50.57-6.63-63l1.15-.23.13-.12.37.12c-8.25,12,6.49,63.22,6.49,63.22l-7.2,5.51-.63-.68Z"/><circle class="cls-42" cx="62.45" cy="371.85" r="15.62"/><path class="cls-38" d="M68,394v-6.8a6.71,6.71,0,0,0-.16-1.48,15.62,15.62,0,0,0-6.26-29.49h.88a15.62,15.62,0,0,1,7.15,29.51,6.71,6.71,0,0,1,.16,1.48V394a7,7,0,0,1-6.94,7.06,5.6,5.6,0,0,1-1-.06A7.08,7.08,0,0,0,68,394Z"/><path class="cls-5" d="M46.58,449.7s30.13,3.4,31.24,0c3.6-11-6-22.89-1.2-28.7,5-6,1.2-14.13,1.2-14.13A15.62,15.62,0,0,0,62.2,391.25h0a15.62,15.62,0,0,0-15.62,15.62Z"/><path class="cls-38" d="M76.66,421c5-6,1.2-14.13,1.2-14.13a15.62,15.62,0,0,0-15.62-15.62,6.63,6.63,0,0,0-1,.05,15.61,15.61,0,0,1,14.62,15.57s3.8,8.13-1.2,14.13c-4.84,5.81,4.8,17.69,1.2,28.7-.34,1.05-3.45,1.45-7.58,1.51,5.09.05,9.19-.29,9.58-1.51C81.5,438.68,71.82,426.81,76.66,421Z"/><path class="cls-42" d="M71.43,448.7h0c11,15.59,15.87,39.15,12.72,61.81l-.09.68H74.67s2.91-8.57,0-23.68a37.38,37.38,0,0,0-14.24-22.68l-9.06,46.36H42.63l8.74-62.49Z"/><path class="cls-42" d="M124.39,358.83s3.63-1.52,2.07-6.75-7.9-3.47-7.9-3.47-3.85,5.67-2.36,7.71S124.39,358.83,124.39,358.83Z"/><path class="cls-5" d="M70.94,409.39s46.81-15.17,53.44-50.56l-8.67-2.66s-34.45,38.46-49,38.73S70.94,409.39,70.94,409.39Z"/><path class="cls-38" d="M122.79,358.87l1.45.44c-6.63,35.39-53.44,50.56-53.44,50.56l-.83-.65C75.5,407.3,116.61,391.88,122.79,358.87Z"/><g class="cls-8"><path class="cls-4" d="M58.42,464.83l-9.06,46.36h2l8.8-45C59.6,465.71,59,465.25,58.42,464.83Z"/><path class="cls-4" d="M71.43,448.7h-2c11,15.59,15.87,39.15,12.72,61.81l-.09.68h2l.09-.68C87.3,487.85,82.45,464.29,71.43,448.7Z"/></g><path class="cls-38" d="M123.42,358.52s3.63-1.52,2.07-6.75a4.81,4.81,0,0,0-2.9-3.29,4.9,4.9,0,0,1,3.86,3.58c1.56,5.22-2.07,6.75-2.07,6.75a27.17,27.17,0,0,1-5.86-1.1A29.13,29.13,0,0,0,123.42,358.52Z"/><path class="cls-39" d="M46.58,448l-19,40a234.67,234.67,0,0,1,33,4c21,4,31-6,31-6L78,448Z"/><path class="cls-5" d="M51.62,511s10,2,8,6h-18l1-6Z"/><path class="cls-5" d="M83.62,511s10,2,8,6h-18l1-6Z"/><path class="cls-43" d="M76.62,359s-24,34-13,48l-43-1S32.62,329,76.62,359Z"/><path class="cls-38" d="M76.62,359c-6.2-4.23-11.76-6.33-16.75-6.82A42.27,42.27,0,0,1,71.62,358s-24,34-13,48l-37.85-.88c-.1.57-.15.88-.15.88l43,1C52.62,393,76.62,359,76.62,359Z"/><path class="cls-38" d="M78.08,448h-3l13.55,38s-6.46,6.45-19.9,6.91c15.47.5,22.9-6.91,22.9-6.91Z"/><path class="cls-38" d="M51.62,511h-2s10,2,8,6h2C61.62,513,51.62,511,51.62,511Z"/><path class="cls-38" d="M83.62,511h-2s10,2,8,6h2C93.62,513,83.62,511,83.62,511Z"/><rect class="cls-2" x="500.62" y="167.68" width="383" height="14.5"/><rect class="cls-44" x="493" y="163.05" width="398" height="496"/><rect class="cls-4" x="500.62" y="182.18" width="383" height="459.5"/><circle class="cls-5" cx="509.5" cy="175.18" r="3.5"/><circle class="cls-6" cx="519.12" cy="175.18" r="3.5"/><circle class="cls-7" cx="528.75" cy="175.18" r="3.5"/><g class="cls-8"><rect class="cls-9" x="524.62" y="202.68" width="336" height="9"/></g><rect class="cls-45" x="522.62" y="241.68" width="145" height="154"/><rect class="cls-4" x="525.62" y="246.68" width="139" height="144"/><rect class="cls-46" x="715.62" y="318.68" width="145" height="154"/><rect class="cls-4" x="718.62" y="323.68" width="139" height="144"/><rect class="cls-47" x="525.62" y="508.68" width="341" height="106"/><rect class="cls-25" x="532.62" y="515.68" width="328" height="95"/><polygon class="cls-23" points="540.62 524.68 860.62 524.68 860.62 515.68 532.62 515.68 532.62 610.68 540.62 610.68 540.62 524.68"/><path class="cls-48" d="M641.59,278.23a62,62,0,1,0,15,40.45A62,62,0,0,0,641.59,278.23Zm-25,77.47a43,43,0,1,1,21.08-37,43,43,0,0,1-21.08,37Z"/><path class="cls-5" d="M625.67,291.94l13.65-11.75a58.84,58.84,0,0,0-44.7-20.51v18A40.94,40.94,0,0,1,625.67,291.94Z"/><path class="cls-7" d="M594.62,359.67A40.8,40.8,0,0,1,577.7,356l-7.43,16.41a59,59,0,0,0,54.49-3l-9.2-15.49A40.73,40.73,0,0,1,594.62,359.67Z"/><path class="cls-19" d="M653.62,318.67a58.74,58.74,0,0,0-14.3-38.49l-13.65,11.75a40.94,40.94,0,0,1-10.11,62l9.2,15.49A59,59,0,0,0,653.62,318.67Z"/><path class="cls-49" d="M553.62,318.67a41,41,0,0,1,41-41h0v-18a59,59,0,0,0-24.35,112.74L577.7,356A41,41,0,0,1,553.62,318.67Z"/><rect class="cls-50" x="737.62" y="344.68" width="106" height="18"/><rect class="cls-14" x="738.62" y="345.68" width="104" height="16"/><rect class="cls-49" x="738.62" y="372.68" width="76" height="16"/><rect class="cls-7" x="738.62" y="399.68" width="52" height="16"/><rect class="cls-19" x="738.62" y="426.68" width="94" height="16"/><rect class="cls-2" x="525.62" y="419.68" width="149" height="9"/><rect class="cls-2" x="525.62" y="434.68" width="84" height="9"/><rect class="cls-2" x="624.62" y="434.68" width="29" height="9"/><rect class="cls-2" x="624.62" y="467.68" width="29" height="9"/><rect class="cls-2" x="525.62" y="464.68" width="84" height="9"/><rect class="cls-2" x="525.62" y="449.68" width="149" height="9"/><rect class="cls-2" x="713.62" y="242.68" width="149" height="9"/><rect class="cls-2" x="713.62" y="257.68" width="84" height="9"/><rect class="cls-2" x="812.62" y="257.68" width="29" height="9"/><rect class="cls-2" x="812.62" y="290.68" width="29" height="9"/><rect class="cls-2" x="713.62" y="287.68" width="84" height="9"/><rect class="cls-2" x="713.62" y="272.68" width="149" height="9"/><circle class="cls-51" cx="760.62" cy="688.68" r="11"/><circle class="cls-5" cx="760.62" cy="688.68" r="8"/><rect class="cls-52" x="435.62" y="566.68" width="344" height="121"/><rect class="cls-4" x="445.62" y="571.68" width="328" height="95"/><line class="cls-53" x1="456.62" y1="648.68" x2="760.62" y2="648.68"/><rect class="cls-54" x="459.62" y="590.68" width="45" height="55"/><rect class="cls-9" x="462.12" y="593.18" width="40" height="51"/><rect class="cls-7" x="712.62" y="629.68" width="40" height="16"/><rect class="cls-19" x="637.62" y="608.68" width="40" height="36"/><rect class="cls-5" x="549.62" y="614.68" width="40" height="30"/><rect class="cls-5" x="445.62" y="666.68" width="328" height="14"/><circle class="cls-55" cx="459.62" cy="688.68" r="11"/><circle class="cls-5" cx="459.62" cy="688.68" r="8"/><rect class="cls-5" x="437.62" y="575.68" width="8" height="105"/><rect class="cls-56" x="437.62" y="575.68" width="8" height="105"/><path class="cls-57" d="M446.15,586.84V586a.48.48,0,0,0-.06-.31,3.43,3.43,0,0,1-.12-.44c-.05-.14-.06-.19-.1-.29l-.18-.42-.12-.25c-.08-.14-.17-.28-.26-.41l-.13-.19c-.13-.18-.27-.35-.42-.52h0a9.58,9.58,0,0,0-2.79-2.06,8,8,0,0,0,1.79-3.08,7.62,7.62,0,0,0,.24-.94v-.29a5.67,5.67,0,0,0,.05-.58v-.81a.48.48,0,0,0-.06-.31,3.43,3.43,0,0,1-.12-.44c-.05-.14-.06-.19-.1-.29l-.18-.42-.12-.25c-.08-.14-.17-.28-.26-.41l-.13-.19c-.13-.18-.27-.35-.42-.52h0a10.1,10.1,0,0,0-3.55-2.4s-6.35,2.35-6.77,4.93c-4.66,1-31.82,6.65-50.47,6.2l-.14-.37a16.61,16.61,0,0,0-8.83-14.67V560c0-.27,0-.53,0-.8h0c0-.26-.07-.51-.12-.76l.12-.07.51-.28.74-.45.47-.31a12.52,12.52,0,0,0,1-.76l.38-.33.67-.61.39-.38c.27-.28.53-.57.78-.86l.27-.34c.23-.29.46-.59.67-.9l.27-.41c.19-.3.38-.61.56-.92l.17-.3c.22-.4.42-.82.6-1.24l.15-.38c.14-.34.27-.67.38-1l.12-.37c.14-.46.26-.92.36-1.39a.56.56,0,0,1,.05-.28c.07-.4.13-.8.18-1.21v-.41c0-.5.08-1,.08-1.51a16.46,16.46,0,0,0-2.13-8.11c1.07-.26,1.72-.47,1.64-.57-.41-.55-.82-1.07-1.25-1.57l-.41-.47-.89-1-.48-.49c-.3-.3-.6-.58-.9-.85l-.47-.42-1.14-.93-.25-.2-1.39-1-.52-.32c-.3-.19-.61-.37-.92-.53L372,527l-.86-.41-.63-.28c-.3-.13-.61-.24-.92-.35l-.57-.21c-.46-.15-.92-.29-1.38-.41l-.71-.16-.77-.16-.77-.12-.71-.08-.79-.07h-1.47c-.43,0-.87,0-1.3.06h0c-10.23.84-19.19,9.77-19.19,24v11.74h16v5.34a16.6,16.6,0,0,0-9.64,15v45.51l-13.58,62.39h-.18l-2.67,11.91,19.16,3.1h0l.83.13c2-.86-1.35-4.89-2.86-8a8.68,8.68,0,0,1-.4-1,7.58,7.58,0,0,1-.38-1.94l14.72-48.29h-.07l.35-1.13s18.74,8,23.56,24.09c3.91,13,1.48,21.46.42,24.2h-.07V692c-.21.52-.36.81-.36.81h.36v8.83h20.26c1.88-.95-2.11-3.72-4.1-6a5.63,5.63,0,0,1-1.32-2.55h.34l.16-.72a69.53,69.53,0,0,0-20.86-65.77.56.56,0,0,0,.09-.17,74.61,74.61,0,0,0,3.51-18.06c15.49,1.48,36.1.42,51.51-11.52a47.93,47.93,0,0,0,4.21-3.58c1.33-.1,3.66-.84,4.95-4.6a7.62,7.62,0,0,0,.24-.94v-.29A4.64,4.64,0,0,0,446.15,586.84Z"/><path class="cls-14" d="M365,604.46s46.9,14.91,72.88-10l-5.51-7.21s-50.4,11.23-62.41,3S365,604.46,365,604.46Z"/><path class="cls-38" d="M436.55,593.52l.92,1.2c-26,24.92-72.88,10-72.88,10s-.12-.38-.3-1C369.88,605.39,412.31,616.8,436.55,593.52Z"/><path class="cls-58" d="M436.87,594.45s3.84.87,5.61-4.28-4.4-7.42-4.4-7.42-6.43,2.37-6.41,4.89S436.87,594.45,436.87,594.45Z"/><path class="cls-38" d="M436.26,593.64s3.84.87,5.61-4.28a4.82,4.82,0,0,0-.45-4.36,4.89,4.89,0,0,1,1.06,5.16c-1.77,5.16-5.61,4.28-5.61,4.28a27.1,27.1,0,0,1-4.12-4.31A29.09,29.09,0,0,0,436.26,593.64Z"/><path id="_4635430b-7803-4f1f-9770-b56b2b482545" data-name="4635430b-7803-4f1f-9770-b56b2b482545" class="cls-14" d="M387.2,687.27h13.89a4.56,4.56,0,0,0,1.31,3.57c1.87,2.16,5.63,4.77,3.86,5.66H387.2Z"/><path class="cls-38" d="M401.39,690.84a4.56,4.56,0,0,1-1.31-3.57h1a4.56,4.56,0,0,0,1.31,3.57c1.87,2.16,5.63,4.77,3.86,5.66h-1C407,695.61,403.26,693,401.39,690.84Z"/><path id="a892faa3-7b18-4010-9d55-72c2aac7ddb8" class="cls-14" d="M337.73,684.41l13,2.13a6.62,6.62,0,0,0,.59,4.58c1.42,3,4.61,6.74,2.69,7.55l-18.82-3Z"/><path class="cls-38" d="M350.33,691.11a6.62,6.62,0,0,1-.59-4.58l-12.05-2v-.16l13,2.13a6.62,6.62,0,0,0,.59,4.58c1.42,3,4.61,6.74,2.69,7.55l-.79-.13C354.66,697.52,351.69,693.93,350.33,691.11Z"/><path class="cls-58" d="M366.7,577.07h0a7.06,7.06,0,0,1-7.05-7.06v-6.79a7.06,7.06,0,0,1,7.05-7.06h0a7.06,7.06,0,0,1,7.06,7.06V570A7.06,7.06,0,0,1,366.7,577.07Z"/><circle class="cls-58" cx="366.45" cy="547.85" r="15.62"/><path class="cls-38" d="M372,570v-6.8a6.71,6.71,0,0,0-.16-1.48,15.62,15.62,0,0,0-6.26-29.49h.88a15.62,15.62,0,0,1,7.15,29.51,6.71,6.71,0,0,1,.16,1.48V570a7,7,0,0,1-6.94,7.06,5.6,5.6,0,0,1-1-.06A7.08,7.08,0,0,0,372,570Z"/><path class="cls-14" d="M350.58,625.7s30.13,3.4,31.24,0c7.81-23.94,0-42.83,0-42.83a15.62,15.62,0,0,0-15.62-15.62h0a15.62,15.62,0,0,0-15.62,15.62Z"/><path class="cls-39" d="M350.58,625.7,337,688.19h13.61l14.11-46.36s17.64,7.56,22.17,22.68,0,23.68,0,23.68H401.5l.15-.68a65,65,0,0,0-19.8-61.81h0"/><path class="cls-38" d="M380.06,625.7c7.81-23.94,0-42.83,0-42.83a15.62,15.62,0,0,0-14.61-15.59h1a15.62,15.62,0,0,1,15.62,15.62s7.81,18.9,0,42.83c-.4,1.22-4.52,1.56-9.64,1.51C376.59,627.15,379.72,626.75,380.06,625.7Z"/><g class="cls-8"><path class="cls-4" d="M364.43,642.93l-13.85,45.51h-2l14.11-46.36S363.34,642.36,364.43,642.93Z"/><path class="cls-4" d="M379.81,626h2a65,65,0,0,1,19.8,61.81l-.15.68h-2l.15-.68A65,65,0,0,0,379.81,626Z"/></g><path class="cls-14" d="M363,594.46s46.9,14.91,72.88-10l-5.51-7.21s-50.4,11.23-62.41,3S363,594.46,363,594.46Z"/><path class="cls-38" d="M434.55,583.52l.92,1.2c-26,24.92-72.88,10-72.88,10s-.12-.38-.3-1C367.88,595.39,410.31,606.8,434.55,583.52Z"/><path class="cls-58" d="M434.87,584.45s3.84.87,5.61-4.28-4.4-7.42-4.4-7.42-6.43,2.37-6.41,4.89S434.87,584.45,434.87,584.45Z"/><path class="cls-38" d="M434.26,583.64s3.84.87,5.61-4.28a4.82,4.82,0,0,0-.45-4.36,4.89,4.89,0,0,1,1.06,5.16c-1.77,5.16-5.61,4.28-5.61,4.28a27.1,27.1,0,0,1-4.12-4.31A29.09,29.09,0,0,0,434.26,583.64Z"/><path class="cls-39" d="M367.62,542.67l-1,21h-22V552.52c0-22.39,23.67-30.89,37-12.9C382,540.11,367.62,542.67,367.62,542.67Z"/><path class="cls-38" d="M362.68,530c5.61.46,11.38,3.52,15.94,9.67.33.44-14,3-14,3l-1,21h3l1-21s14.33-2.56,14-3C376.25,532.42,369.19,529.52,362.68,530Z"/></svg>